<?xml version="1.0" encoding="iso-8859-1"?>
<!-- Uploaded to: SVG Repo, www.svgrepo.com, Generator: SVG Repo Mixer Tools -->
<svg height="800px" width="800px" version="1.1" id="Layer_1" xmlns="http://www.w3.org/2000/svg"
	xmlns:xlink="http://www.w3.org/1999/xlink" viewBox="0 0 512 512" xml:space="preserve">
	<path style="fill:#E21B1B;"
		d="M256,0C114.616,0,0,114.616,0,256s114.616,256,256,256s256-114.616,256-256S397.384,0,256,0z" />
	<path style="fill:#FFFFFF;" d="M390.536,114.2l-178.784,36.136V321.32c-10.544-6.976-22.944-10.632-35.592-10.488
	c-30.216,0-54.696,19.456-54.696,43.488s24.48,43.488,54.696,43.488s54.696-19.456,54.696-43.488V221.888L369.736,200v100.24
	c-10.2-6.24-21.936-9.496-33.888-9.416c-30.216,0-54.696,19.456-54.696,43.488s24.48,43.488,54.696,43.488
	s54.696-19.456,54.696-43.488c-0.024-1.616-0.144-3.232-0.36-4.84h0.36L390.536,114.2z" />
</svg>